# xmcd
#
# Track frame offsets:
#	150
#	14992
#	31356
#	44887
#	58771
#	76422
#	91085
#	104894
#	123582
#	137030
#	147706
#	161576
#
# Disc length: 2343 seconds
#
# Revision: 0
# Processed by: cddbd v1.5.2PL0 Copyright (c) Steve Scherf et al.
# Submitted via: audiograbber 1.83.01
#
DISCID=ba09250c
DTITLE=Dorrie Muller  - Life's Dream
DYEAR=2004
DGENRE=Country
TTITLE0=Sprig Of Rosemary
TTITLE1=The Faithful Old Dog
TTITLE2=The Rodeo Is Coming To Town
TTITLE3=No Such Thing As Strangers
TTITLE4=Old Jim
TTITLE5=Where The Golden Wattle Bloom
TTITLE6=Many Dreams
TTITLE7=Walking Piece Of Heaven
TTITLE8=There's Dust On Mothers Old Bible
TTITLE9=I Feel Like Yodelling Again
TTITLE10=I Overlooked An Orchid
TTITLE11=I'm In Love With The Rodeo Man
EXTD=
EXTT0=
EXTT1=
EXTT2=
EXTT3=
EXTT4=
EXTT5=
EXTT6=
EXTT7=
EXTT8=
EXTT9=
EXTT10=
EXTT11=
PLAYORDER=
